<!--<?xml version="1.0" encoding="utf-8"?>-->
<!-- Generator: Adobe Illustrator 16.0.0, SVG Export Plug-In . SVG Version: 6.00 Build 0)  -->
<!--<!DOCTYPE svg PUBLIC "-//W3C//DTD SVG 1.1//EN" "http://www.w3.org/Graphics/SVG/1.1/DTD/svg11.dtd">-->
<svg version="1.1" id="Layer_1" xmlns="http://www.w3.org/2000/svg" xmlns:xlink="http://www.w3.org/1999/xlink" x="0px" y="0px"
	 width="236.848px" height="270.334px" viewBox="0 0 236.848 270.334" enable-background="new 0 0 236.848 270.334"
	 xml:space="preserve">
<g>
	<g>
		<polygon points="12.108,102.631 12.108,82.054 111.869,139.652 111.869,254.879 12.108,197.284 12.108,135.554 29.924,145.84 
			29.924,186.993 94.055,224.02 94.055,149.944 		" fill="#FFF"/>
	</g>
	<g>
		<polygon points="208.066,166.417 225.881,156.131 225.881,197.284 126.121,254.881 126.121,139.652 225.881,82.075 
			225.881,123.208 208.066,133.493 208.066,112.917 143.935,149.944 143.935,224.02 208.066,186.993 		" fill="#FFF"/>
	</g>
	<g>
		<polygon points="165.334,59.438 183.147,49.153 218.788,69.729 119.027,127.326 19.236,69.711 119.014,12.125 154.636,32.691 
			136.822,42.977 119.002,32.688 54.872,69.714 119.022,106.752 183.152,69.726 		" fill="#FFF"/>
	</g>
	<rect x="117.514" y="233.834" width="3" height="33" fill="#FFF"/>
	<polygon points="203.811,84.938 205.175,87.301 233.609,70.75 232.244,68.385 	" fill="#FFF"/>
	<rect x="17.918" y="61.448" fill="#FFF" transform="matrix(-0.5001 0.8659 -0.8659 -0.5001 96.3845 100.1626)" width="2.73" height="32.903"/>
	<polygon fill="none" stroke="#FFF" stroke-width="5" stroke-miterlimit="10" points="233.024,201.385 119.012,267.211 
		5,201.385 5,69.737 119.012,3.913 233.024,69.737 	"/>
</g>
</svg>
